<?xml version="1.0" encoding="UTF-8"?>
<!DOCTYPE svg PUBLIC "-//W3C//DTD SVG 1.1//EN" "http://www.w3.org/Graphics/SVG/1.1/DTD/svg11.dtd">
<svg xmlns="http://www.w3.org/2000/svg" version="1.1" width="128px" height="128px" style="shape-rendering:geometricPrecision; text-rendering:geometricPrecision; image-rendering:optimizeQuality; fill-rule:evenodd; clip-rule:evenodd" xmlns:xlink="http://www.w3.org/1999/xlink">
<g><path style="opacity:0.991" fill="#4f83d1" d="M 35.5,3.5 C 39.0071,2.99353 42.1737,3.66019 45,5.5C 45.5,26.8307 45.6666,48.1641 45.5,69.5C 46.8734,69.3433 48.2068,69.51 49.5,70C 50.8333,72.3333 52.1667,74.6667 53.5,77C 56.8333,77.3333 60.1667,77.6667 63.5,78C 64,78.5 64.5,79 65,79.5C 65.9633,93.2611 65.63,106.928 64,120.5C 63.1667,121.333 62.3333,122.167 61.5,123C 43.5031,123.5 25.5031,123.667 7.5,123.5C 7.23798,122.022 7.57131,120.689 8.5,119.5C 10.9592,118.209 12.4592,116.209 13,113.5C 13.3333,102.167 13.6667,90.8333 14,79.5C 14.5,79 15,78.5 15.5,78C 18.8333,77.6667 22.1667,77.3333 25.5,77C 26.8333,74.6667 28.1667,72.3333 29.5,70C 30.7932,69.51 32.1266,69.3433 33.5,69.5C 33.3334,48.1641 33.5,26.8307 34,5.5C 34.7172,4.9558 35.2172,4.28913 35.5,3.5 Z"/></g>
<g><path style="opacity:1" fill="#ccedf5" d="M 38.5,7.5 C 39.4959,7.41423 40.3292,7.74756 41,8.5C 41.4999,20.1619 41.6665,31.8286 41.5,43.5C 40.1667,43.5 38.8333,43.5 37.5,43.5C 37.1881,31.4197 37.5214,19.4197 38.5,7.5 Z"/></g>
<g><path style="opacity:0.968" fill="#4f83d2" d="M 56.5,19.5 C 58.5,19.5 60.5,19.5 62.5,19.5C 62.5,22.8333 64.1667,24.5 67.5,24.5C 67.5,26.5 67.5,28.5 67.5,30.5C 64.1667,30.5 62.5,32.1667 62.5,35.5C 60.5,35.5 58.5,35.5 56.5,35.5C 56.5,32.1667 54.8333,30.5 51.5,30.5C 51.5,28.5 51.5,26.5 51.5,24.5C 54.8333,24.5 56.5,22.8333 56.5,19.5 Z"/></g>
<g><path style="opacity:0.968" fill="#4f83d2" d="M 16.5,43.5 C 18.5,43.5 20.5,43.5 22.5,43.5C 22.5,46.8333 24.1667,48.5 27.5,48.5C 27.5,50.5 27.5,52.5 27.5,54.5C 24.1667,54.5 22.5,56.1667 22.5,59.5C 20.5,59.5 18.5,59.5 16.5,59.5C 16.5,56.1667 14.8333,54.5 11.5,54.5C 11.5,52.5 11.5,50.5 11.5,48.5C 14.8333,48.5 16.5,46.8333 16.5,43.5 Z"/></g>
<g><path style="opacity:1" fill="#fefffe" d="M 37.5,47.5 C 38.8333,47.5 40.1667,47.5 41.5,47.5C 41.5,50.1667 41.5,52.8333 41.5,55.5C 40.1667,55.5 38.8333,55.5 37.5,55.5C 37.5,52.8333 37.5,50.1667 37.5,47.5 Z"/></g>
<g><path style="opacity:1" fill="#cceef5" d="M 37.5,59.5 C 38.8333,59.5 40.1667,59.5 41.5,59.5C 41.5,62.8333 41.5,66.1667 41.5,69.5C 40.1667,69.5 38.8333,69.5 37.5,69.5C 37.5,66.1667 37.5,62.8333 37.5,59.5 Z"/></g>
<g><path style="opacity:0.929" fill="#5084d1" d="M 95.5,69.5 C 98.1873,69.3359 100.854,69.5026 103.5,70C 107.033,70.9856 110.533,72.1522 114,73.5C 115.483,76.7024 115.817,80.0357 115,83.5C 112.643,85.9526 110.81,88.786 109.5,92C 106.298,93.4833 102.964,93.8166 99.5,93C 96.4135,90.4612 92.9135,88.6279 89,87.5C 87.5167,84.2976 87.1834,80.9643 88,77.5C 90.8287,75.163 93.3287,72.4963 95.5,69.5 Z"/></g>
<g><path style="opacity:1" fill="#7ab6ea" d="M 32.5,73.5 C 37.1785,73.3342 41.8452,73.5008 46.5,74C 47.1667,75 47.8333,76 48.5,77C 42.5,77.6667 36.5,77.6667 30.5,77C 31.305,75.8873 31.9717,74.7206 32.5,73.5 Z"/></g>
<g><path style="opacity:0.909" fill="#5388d2" d="M 73.5,73.5 C 83.4874,72.3319 86.154,76.1653 81.5,85C 71.4338,86.4671 68.7671,82.6338 73.5,73.5 Z"/></g>
<g><path style="opacity:1" fill="#c8eaf4" d="M 98.5,73.5 C 100.344,74.1603 102.01,75.1603 103.5,76.5C 108.951,74.1419 111.451,75.8086 111,81.5C 108.555,83.5583 106.722,86.0583 105.5,89C 102.741,89.9774 100.741,89.144 99.5,86.5C 96.7428,85.9708 94.2428,84.9708 92,83.5C 91.074,79.7469 92.574,77.5802 96.5,77C 97.305,75.8873 97.9717,74.7206 98.5,73.5 Z"/></g>
<g><path style="opacity:1" fill="#7bb7ea" d="M 18.5,81.5 C 32.504,81.3334 46.504,81.5001 60.5,82C 61.4714,87.0717 61.8047,92.2384 61.5,97.5C 46.8333,97.5 32.1667,97.5 17.5,97.5C 17.2175,92.0735 17.5509,86.7401 18.5,81.5 Z"/></g>
<g><path style="opacity:1" fill="#4f83d1" d="M 22.5,85.5 C 24.8333,85.5 27.1667,85.5 29.5,85.5C 29.5,86.8333 29.5,88.1667 29.5,89.5C 28.1667,89.5 26.8333,89.5 25.5,89.5C 25.5,90.8333 25.5,92.1667 25.5,93.5C 24.1667,93.5 22.8333,93.5 21.5,93.5C 21.2786,90.7212 21.612,88.0545 22.5,85.5 Z"/></g>
<g><path style="opacity:1" fill="#4f83d1" d="M 33.5,85.5 C 34.8333,85.5 36.1667,85.5 37.5,85.5C 37.5,86.8333 37.5,88.1667 37.5,89.5C 36.1667,89.5 34.8333,89.5 33.5,89.5C 33.5,88.1667 33.5,86.8333 33.5,85.5 Z"/></g>
<g><path style="opacity:0.87" fill="#4f83cf" d="M 82.5,87.5 C 85.4701,87.7458 86.8034,89.4124 86.5,92.5C 82.9076,93.6488 79.241,94.6488 75.5,95.5C 73.233,94.6378 72.233,92.9711 72.5,90.5C 76.1621,90.2766 79.4954,89.2766 82.5,87.5 Z"/></g>
<g><path style="opacity:0.908" fill="#4f85d1" d="M 90.5,91.5 C 92.8489,91.4583 94.1822,92.6249 94.5,95C 91.7773,97.2508 88.6107,98.7508 85,99.5C 83.124,98.381 82.2907,96.7144 82.5,94.5C 85.5418,94.2671 88.2084,93.2671 90.5,91.5 Z"/></g>
<g><path style="opacity:1" fill="#4f83d1" d="M 113.5,95.5 C 114.833,95.5 116.167,95.5 117.5,95.5C 117.5,96.8333 117.5,98.1667 117.5,99.5C 116.167,99.5 114.833,99.5 113.5,99.5C 113.5,98.1667 113.5,96.8333 113.5,95.5 Z"/></g>
<g><path style="opacity:0.917" fill="#5488d2" d="M 97.5,97.5 C 107.487,96.3319 110.154,100.165 105.5,109C 95.4338,110.467 92.7671,106.634 97.5,97.5 Z"/></g>
<g><path style="opacity:1" fill="#4f83d1" d="M 69.5,99.5 C 70.8333,99.5 72.1667,99.5 73.5,99.5C 73.5,100.833 73.5,102.167 73.5,103.5C 72.1667,103.5 70.8333,103.5 69.5,103.5C 69.5,102.167 69.5,100.833 69.5,99.5 Z"/></g>
<g><path style="opacity:1" fill="#caebf5" d="M 17.5,101.5 C 18.8333,101.5 20.1667,101.5 21.5,101.5C 21.6658,106.179 21.4992,110.845 21,115.5C 20.1314,118.394 18.2981,119.561 15.5,119C 16.1905,117.933 16.6905,116.766 17,115.5C 17.4992,110.845 17.6658,106.179 17.5,101.5 Z"/></g>
<g><path style="opacity:1" fill="#caebf5" d="M 25.5,101.5 C 26.8333,101.5 28.1667,101.5 29.5,101.5C 29.6658,106.179 29.4992,110.845 29,115.5C 28.1314,118.394 26.2981,119.561 23.5,119C 24.1905,117.933 24.6905,116.766 25,115.5C 25.4992,110.845 25.6658,106.179 25.5,101.5 Z"/></g>
<g><path style="opacity:1" fill="#caebf5" d="M 33.5,101.5 C 34.8333,101.5 36.1667,101.5 37.5,101.5C 37.6658,106.179 37.4992,110.845 37,115.5C 36.1314,118.394 34.2981,119.561 31.5,119C 32.1905,117.933 32.6905,116.766 33,115.5C 33.4992,110.845 33.6658,106.179 33.5,101.5 Z"/></g>
<g><path style="opacity:1" fill="#caebf5" d="M 41.5,101.5 C 42.8333,101.5 44.1667,101.5 45.5,101.5C 45.6658,106.179 45.4992,110.845 45,115.5C 44.1314,118.394 42.2981,119.561 39.5,119C 40.1905,117.933 40.6905,116.766 41,115.5C 41.4992,110.845 41.6658,106.179 41.5,101.5 Z"/></g>
<g><path style="opacity:1" fill="#caebf5" d="M 49.5,101.5 C 50.8333,101.5 52.1667,101.5 53.5,101.5C 53.6658,106.179 53.4992,110.845 53,115.5C 52.1314,118.394 50.2981,119.561 47.5,119C 48.1905,117.933 48.6905,116.766 49,115.5C 49.4992,110.845 49.6658,106.179 49.5,101.5 Z"/></g>
<g><path style="opacity:1" fill="#caebf5" d="M 57.5,101.5 C 58.8333,101.5 60.1667,101.5 61.5,101.5C 61.6658,106.179 61.4992,110.845 61,115.5C 60.1314,118.394 58.2981,119.561 55.5,119C 56.1905,117.933 56.6905,116.766 57,115.5C 57.4992,110.845 57.6658,106.179 57.5,101.5 Z"/></g>
<g><path style="opacity:0.924" fill="#5184d1" d="M 79.5,101.5 C 83.0071,100.994 86.1737,101.66 89,103.5C 89.3505,106.722 90.6838,109.388 93,111.5C 95.1667,121.333 91.3333,125.167 81.5,123C 79.1225,120.446 76.6225,117.946 74,115.5C 73.3333,112.833 73.3333,110.167 74,107.5C 76.3802,105.955 78.2135,103.955 79.5,101.5 Z"/></g>
<g><path style="opacity:1" fill="#c7e9f4" d="M 82.5,105.5 C 83.4959,105.414 84.3292,105.748 85,106.5C 85,107.833 85,109.167 85,110.5C 89.6698,112.356 90.5032,115.19 87.5,119C 86.1667,119.667 84.8333,119.667 83.5,119C 82.2881,115.842 80.2881,113.342 77.5,111.5C 79.8835,110.115 81.5501,108.115 82.5,105.5 Z"/></g>
<g><path style="opacity:1" fill="#4f83d1" d="M 97.5,113.5 C 98.8333,113.5 100.167,113.5 101.5,113.5C 101.5,114.833 101.5,116.167 101.5,117.5C 100.167,117.5 98.8333,117.5 97.5,117.5C 97.5,116.167 97.5,114.833 97.5,113.5 Z"/></g>
</svg>
